<svg xmlns="http://www.w3.org/2000/svg" viewBox="0 0 1328.8 314.8"><defs><style>.a{fill:#fff;}.b{fill:#fe4bd2;}</style></defs><path class="a" d="M136.1-.3H64.8V40.1h66c12.1,0,28.7,2,28.7,18.2V86.2c0,16.2-17.8,17-29.1,17H64.8v61.5l96.8,138.1c4.4,6.5,9.7,11.3,17.8,11.3,11.3,0,20.6-7.7,20.6-19,0-7.7-5.7-15.4-10.1-21.4L99,143.6h37.2c32.3,0,63.8-19.4,63.8-57.4V58.3C199.9,22.4,168-.3,136.1-.3Z" transform="translate(-0.3 0.3)"/><path class="a" d="M.3-.3V293.8C.3,306.7,6,314,20.5,314s19.6-6.6,20.1-18.4V-.3Z" transform="translate(-0.3 0.3)"/><path class="a" d="M425.3,93.1c0-57-27.1-93.3-86.5-93.3h-2.9V40.2h2.9c36.8,0,46.1,19,46.1,52.9,0,30.7-17,43.6-46.1,43.6h-2.9v40.4h2.9c36.8,0,46.1,19,46.1,52.9,0,30.7-17,43.6-46.1,43.6h-2.9V314h2.9c51.3,0,86.5-31.1,86.5-84,0-29.9-3.6-51.3-26.7-73.1C420.1,137.9,425.3,116.5,425.3,93.1Z" transform="translate(-0.3 0.3)"/><polygon class="a" points="265.8 274 265.8 177.4 311.5 177.4 311.5 137 265.8 137 265.8 40.4 311.5 40.4 311.5 0 225.4 0 225.4 314.4 311.5 314.4 311.5 274 265.8 274"/><path class="a" d="M462.1,200.5l37.2,75.1c12.9,26.3,30.3,38.4,60.6,38.4h70.7c9.3,0,20.2-5.7,20.2-20.2s-11.3-20.2-20.2-20.2H564.7c-18.2,0-22.2-1.2-30.3-17.8l-34.3-69.9a103.6,103.6,0,0,1-6.1-13.5H452.4C454,182.2,457.4,191.2,462.1,200.5Z" transform="translate(-0.3 0.3)"/><path class="a" d="M650.7,19.9c0-15.4-11.3-20.2-20.2-20.2H561.8c-31.1,0-48.5,10.9-62.2,38.8l-37.2,74.7c-6.5,13-9.9,22.6-10.9,35.1h40.9c1.3-7.3,4-13.2,7.7-21L535.2,57c7.7-15.4,10.5-17,27.9-17h67.5C639.8,40.1,650.7,34.5,650.7,19.9Z" transform="translate(-0.3 0.3)"/><path class="a" d="M856.4.1c-14.5,0-20.2,7.3-20.2,20.2l-.4,224.6h-.4l-31.2-72.5H761.5l61.8,142h53.3V20.3C876.6,7.4,870.9.1,856.4.1Z" transform="translate(-0.3 0.3)"/><path class="a" d="M729.9-.3H676.6V293.8c0,12.9,5.7,20.2,20.2,20.2s20.2-7.3,20.2-20.2V71.7h.8v.4L751,148.4h42.8Z" transform="translate(-0.3 0.3)"/><path class="b" d="M1083.5,314.5c10.5,0,20.2-5.7,20.2-20.2s-9.7-20.2-20.2-20.2h-71.9v40.4Z" transform="translate(-0.3 0.3)"/><path class="b" d="M944.6,274.1V177.5h43V137.1H949.8c-30.3,0-45.7,15.4-45.7,45.7V314.5h83.4V274.1Z" transform="translate(-0.3 0.3)"/><path class="b" d="M924.4.1c-10.5,0-20.2,5.7-20.2,20.2s9.7,20.2,20.2,20.2h63.2V.1Z" transform="translate(-0.3 0.3)"/><path class="b" d="M1091.2,11.4C1081.1,2.1,1071.8.1,1058.5.1h-46.8V40.5h51.7v96.6h-51.7v40.4h46.8c13.3,0,22.6-2,32.7-11.3s12.5-21.4,12.5-36V47.4C1103.7,32.9,1102.5,22,1091.2,11.4Z" transform="translate(-0.3 0.3)"/><path class="b" d="M1309,314.5c10.5,0,20.2-5.7,20.2-20.2s-9.7-20.2-20.2-20.2h-68.2v40.4Z" transform="translate(-0.3 0.3)"/><path class="b" d="M1149.8.1c-10.5,0-20.2,5.7-20.2,20.2s9.7,20.2,20.2,20.2h66.9V.1Z" transform="translate(-0.3 0.3)"/><path class="b" d="M1216.7,314.5V274.1H1170V177.5h46.7V137.1h-41.5c-30.3,0-45.7,15.4-45.7,45.7V314.5Z" transform="translate(-0.3 0.3)"/><path class="b" d="M1288.8,40.5v96.6h-48v40.4h43.1c13.3,0,22.6-2,32.7-11.3s12.5-21.4,12.5-36V47.4c0-14.5-1.2-25.5-12.5-36S1297.2.1,1283.9.1h-43.1V40.5Z" transform="translate(-0.3 0.3)"/></svg>